<svg width="183" height="55" viewBox="0 0 183 55" fill="none" xmlns="http://www.w3.org/2000/svg">
<path d="M26.7429 8.60917C27.3171 7.52708 28.7083 7.08542 29.7463 7.65958C38.1821 11.8333 44.1667 22.8088 44.1667 35.6171C44.1667 39.8129 43.4379 43.9646 41.9583 47.8733C41.9583 47.9837 41.87 48.0942 41.8258 48.1825C41.691 48.442 41.5059 48.6721 41.2814 48.8594C41.0569 49.0468 40.7974 49.1877 40.518 49.274C40.2386 49.3603 39.9449 49.3902 39.6538 49.3621C39.3628 49.3339 39.0802 49.2482 38.8225 49.11L27.6042 42.9267C26.9637 42.5292 26.5 41.7783 26.5 40.9833V29.2917V21.5942L23.6512 18.7233C23.4469 18.5186 23.2043 18.3562 22.9371 18.2454C22.67 18.1346 22.3836 18.0775 22.0944 18.0775C21.8052 18.0775 21.5188 18.1346 21.2516 18.2454C20.9845 18.3562 20.7418 18.5186 20.5375 18.7233L17.6667 21.5721V40.9613C17.6667 41.7783 17.2471 42.5292 16.5625 42.9046L5.38833 49.0879C5.10476 49.2453 4.79019 49.3388 4.46667 49.3618C4.14315 49.3848 3.81852 49.3368 3.51553 49.221C3.21255 49.1053 2.93854 48.9247 2.71273 48.6919C2.48692 48.4591 2.31476 48.1797 2.20833 47.8733C0.72875 43.9646 0 39.8129 0 35.6171C0 22.8088 6.00667 11.8333 14.4204 7.65958C14.7296 7.505 15.0829 7.41667 15.4583 7.41667C16.6508 7.41667 17.6667 8.38833 17.6667 9.625V15.3446L19.2346 13.7767C19.6542 13.3571 19.875 12.805 19.875 12.2087V3H24.2917V12.2308C24.2905 12.5181 24.3465 12.8027 24.4564 13.0681C24.5664 13.3335 24.7281 13.5744 24.9321 13.7767L26.5 15.3446V9.625C26.5 9.27167 26.5883 8.91833 26.7429 8.60917Z" fill="#05D3AB"/>
<mask id="mask0_1_30" style="mask-type:alpha" maskUnits="userSpaceOnUse" x="26" y="0" width="23" height="55">
<path d="M26.5 1.5L49 0V54.5L26.5 50V1.5Z" fill="#D9D9D9"/>
</mask>
<g mask="url(#mask0_1_30)">
<path d="M26.7429 8.60917C27.3171 7.52708 28.7083 7.08542 29.7463 7.65958C38.1821 11.8333 44.1667 22.8088 44.1667 35.6171C44.1667 39.8129 43.4379 43.9646 41.9583 47.8733C41.9583 47.9837 41.87 48.0942 41.8258 48.1825C41.691 48.442 41.5059 48.6721 41.2814 48.8594C41.0569 49.0468 40.7974 49.1877 40.518 49.274C40.2386 49.3603 39.9449 49.3902 39.6538 49.3621C39.3628 49.3339 39.0802 49.2482 38.8225 49.11L27.6042 42.9267C26.9637 42.5292 26.5 41.7783 26.5 40.9833V29.2917V21.5942L23.6512 18.7233C23.4469 18.5186 23.2043 18.3562 22.9371 18.2454C22.67 18.1346 22.3836 18.0775 22.0944 18.0775C21.8052 18.0775 21.5188 18.1346 21.2516 18.2454C20.9845 18.3562 20.7418 18.5186 20.5375 18.7233L17.6667 21.5721V40.9613C17.6667 41.7783 17.2471 42.5292 16.5625 42.9046L5.38833 49.0879C5.10476 49.2453 4.79019 49.3388 4.46667 49.3618C4.14315 49.3848 3.81852 49.3368 3.51553 49.221C3.21255 49.1053 2.93854 48.9247 2.71273 48.6919C2.48692 48.4591 2.31476 48.1797 2.20833 47.8733C0.72875 43.9646 0 39.8129 0 35.6171C0 22.8088 6.00667 11.8333 14.4204 7.65958C14.7296 7.505 15.0829 7.41667 15.4583 7.41667C16.6508 7.41667 17.6667 8.38833 17.6667 9.625V15.3446L19.2346 13.7767C19.6542 13.3571 19.875 12.805 19.875 12.2087V3H24.2917V12.2308C24.2905 12.5181 24.3465 12.8027 24.4564 13.0681C24.5664 13.3335 24.7281 13.5744 24.9321 13.7767L26.5 15.3446V9.625C26.5 9.27167 26.5883 8.91833 26.7429 8.60917Z" fill="#4976EF"/>
</g>
<path d="M83.196 23.0938H76.9744C76.8608 22.2888 76.6288 21.5739 76.2784 20.9489C75.928 20.3144 75.4782 19.7746 74.929 19.3295C74.3797 18.8845 73.7453 18.5436 73.0256 18.3068C72.3153 18.0701 71.5436 17.9517 70.7102 17.9517C69.2045 17.9517 67.893 18.3258 66.7756 19.0739C65.6581 19.8125 64.7917 20.892 64.1761 22.3125C63.5606 23.7235 63.2528 25.4375 63.2528 27.4545C63.2528 29.5284 63.5606 31.2708 64.1761 32.6818C64.8011 34.0928 65.6723 35.1581 66.7898 35.8778C67.9072 36.5975 69.1998 36.9574 70.6676 36.9574C71.4915 36.9574 72.2538 36.8485 72.9545 36.6307C73.6648 36.4129 74.2945 36.0956 74.8438 35.679C75.393 35.2528 75.8475 34.7367 76.2074 34.1307C76.5767 33.5246 76.8324 32.8333 76.9744 32.0568L83.196 32.0852C83.035 33.4205 82.6326 34.7083 81.9886 35.9489C81.3542 37.1799 80.4972 38.2831 79.4176 39.2585C78.3475 40.2244 77.0691 40.9915 75.5824 41.5597C74.1051 42.1184 72.4337 42.3977 70.5682 42.3977C67.9735 42.3977 65.6534 41.8106 63.608 40.6364C61.572 39.4621 59.9621 37.7623 58.7784 35.5369C57.6042 33.3116 57.017 30.6174 57.017 27.4545C57.017 24.2822 57.6136 21.5833 58.8068 19.358C60 17.1326 61.6193 15.4375 63.6648 14.2727C65.7102 13.0985 68.0114 12.5114 70.5682 12.5114C72.2538 12.5114 73.8163 12.7481 75.2557 13.2216C76.7045 13.6951 77.9877 14.3864 79.1051 15.2955C80.2225 16.1951 81.1316 17.2983 81.8324 18.6051C82.5426 19.9119 82.9972 21.4081 83.196 23.0938ZM93.544 29.3864V42H87.4929V12.9091H93.3736V24.0312H93.6293C94.1217 22.7434 94.9171 21.7348 96.0156 21.0057C97.1141 20.267 98.492 19.8977 100.149 19.8977C101.664 19.8977 102.985 20.2292 104.112 20.892C105.249 21.5455 106.129 22.4877 106.754 23.7188C107.389 24.9403 107.701 26.4034 107.692 28.108V42H101.641V29.1875C101.65 27.8428 101.309 26.7964 100.618 26.0483C99.9361 25.3002 98.9796 24.9261 97.7486 24.9261C96.9247 24.9261 96.1955 25.1013 95.5611 25.4517C94.9361 25.8021 94.4437 26.3134 94.0838 26.9858C93.7334 27.6487 93.5535 28.4489 93.544 29.3864ZM122.397 42.4261C120.153 42.4261 118.221 41.9716 116.602 41.0625C114.992 40.1439 113.751 38.8466 112.88 37.1705C112.009 35.4848 111.573 33.4915 111.573 31.1903C111.573 28.946 112.009 26.9763 112.88 25.2812C113.751 23.5862 114.978 22.2652 116.559 21.3182C118.15 20.3712 120.015 19.8977 122.156 19.8977C123.595 19.8977 124.935 20.1297 126.175 20.5938C127.425 21.0483 128.514 21.7348 129.442 22.6534C130.38 23.572 131.109 24.7273 131.63 26.1193C132.151 27.5019 132.411 29.1212 132.411 30.9773V32.6392H113.988V28.8892H126.715C126.715 28.018 126.526 27.2462 126.147 26.5739C125.768 25.9015 125.243 25.3759 124.57 24.9972C123.907 24.6089 123.136 24.4148 122.255 24.4148C121.336 24.4148 120.522 24.6278 119.812 25.054C119.111 25.4706 118.562 26.0341 118.164 26.7443C117.766 27.4451 117.563 28.2263 117.553 29.0881V32.6534C117.553 33.733 117.752 34.6657 118.15 35.4517C118.557 36.2377 119.13 36.8438 119.869 37.2699C120.607 37.696 121.483 37.9091 122.496 37.9091C123.169 37.9091 123.784 37.8144 124.343 37.625C124.902 37.4356 125.38 37.1515 125.778 36.7727C126.175 36.3939 126.478 35.9299 126.687 35.3807L132.283 35.75C131.999 37.0947 131.417 38.2689 130.536 39.2727C129.665 40.267 128.538 41.0436 127.156 41.6023C125.782 42.1515 124.196 42.4261 122.397 42.4261ZM141.026 20.1818L145.032 27.8097L149.137 20.1818H155.344L149.023 31.0909L155.515 42H149.336L145.032 34.4574L140.799 42H134.549L141.026 31.0909L134.776 20.1818H141.026ZM158.938 42V20.1818H164.989V42H158.938ZM161.978 17.3693C161.078 17.3693 160.307 17.071 159.663 16.4744C159.028 15.8684 158.711 15.1439 158.711 14.3011C158.711 13.4678 159.028 12.7528 159.663 12.1562C160.307 11.5502 161.078 11.2472 161.978 11.2472C162.878 11.2472 163.645 11.5502 164.279 12.1562C164.923 12.7528 165.245 13.4678 165.245 14.3011C165.245 15.1439 164.923 15.8684 164.279 16.4744C163.645 17.071 162.878 17.3693 161.978 17.3693ZM181.442 20.1818V24.7273H168.303V20.1818H181.442ZM171.286 14.9545H177.337V35.2955C177.337 35.8542 177.422 36.2898 177.592 36.6023C177.763 36.9053 178 37.1184 178.303 37.2415C178.615 37.3646 178.975 37.4261 179.382 37.4261C179.666 37.4261 179.95 37.4025 180.234 37.3551C180.518 37.2983 180.736 37.2557 180.888 37.2273L181.839 41.7301C181.536 41.8248 181.11 41.9337 180.561 42.0568C180.012 42.1894 179.344 42.2699 178.558 42.2983C177.1 42.3551 175.821 42.161 174.723 41.7159C173.634 41.2708 172.786 40.5795 172.18 39.642C171.574 38.7045 171.276 37.5208 171.286 36.0909V14.9545Z" fill="#4976EE"/>
</svg>
